<?xml version="1.0" encoding="UTF-8"?>
<!-- Generated by Pixelmator Pro 3.5.7 -->
<svg width="148" height="30" viewBox="0 0 148 30" xmlns="http://www.w3.org/2000/svg">
    <path id="Path" fill="#414141" stroke="none" visibility="hidden" d="M 44.672001 24.264 C 43.408001 24.264 42.231998 24.048 41.144001 23.615999 C 40.071999 23.167999 39.127998 22.544001 38.312 21.743999 C 37.512001 20.944 36.888 20.016001 36.439999 18.959999 C 35.992001 17.888 35.768002 16.736 35.768002 15.504 C 35.768002 14.272 35.992001 13.128 36.439999 12.071999 C 36.888 11 37.512001 10.071999 38.312 9.288 C 39.112 8.504 40.048 7.896 41.119999 7.464001 C 42.208 7.015999 43.383999 6.792 44.647999 6.792 C 45.992001 6.792 47.183998 7.007999 48.223999 7.440001 C 49.279999 7.872 50.200001 8.464001 50.984001 9.216 L 48.464001 11.76 C 48.015999 11.279999 45.48 10.223999 44.647999 10.223999 C 43.911999 10.223999 43.231998 10.352001 42.608002 10.608 C 42 10.848 41.472 11.200001 41.023998 11.664 C 40.591999 12.128 40.248001 12.688 39.992001 13.344 C 39.751999 14 39.632 14.72 39.632 15.504 C 39.632 16.304001 39.751999 17.032 39.992001 17.688 C 40.248001 18.344 40.591999 18.903999 41.023998 19.368 C 41.472 19.832001 42 20.191999 42.608002 20.448 C 43.231998 20.704 43.911999 20.832001 44.647999 20.832001 C 45.512001 20.832001 46.264 20.695999 46.903999 20.424 C 47.543999 20.152 48.096001 19.775999 48.560001 19.296 L 51.104 21.84 C 50.287998 22.591999 49.352001 23.184 48.296001 23.615999 C 47.256001 24.048 46.048 24.264 44.672001 24.264 Z M 57.433601 24.24 C 56.361599 24.24 55.4016 23.976 54.5536 23.448 C 53.7216 22.92 53.057598 22.200001 52.5616 21.288 C 52.0816 20.375999 51.841599 19.336 51.841599 18.167999 C 51.841599 17 52.0816 15.96 52.5616 15.048 C 53.057598 14.136 53.7216 13.416 54.5536 12.888 C 55.4016 12.360001 56.361599 12.096001 57.433601 12.096001 C 58.217602 12.096001 58.9216 12.248001 59.545601 12.552 C 60.1856 12.855999 60.705601 13.279999 61.105598 13.824001 C 61.5056 14.352 61.729599 14.96 61.777599 15.648 L 61.777599 20.688 C 61.729599 21.375999 61.5056 21.992001 61.105598 22.535999 C 60.7216 23.063999 60.209599 23.48 59.569599 23.784 C 58.9296 24.087999 58.217602 24.24 57.433601 24.24 Z M 58.177601 20.927999 C 58.961601 20.927999 59.593601 20.672001 60.073601 20.16 C 60.5536 19.632 60.793598 18.968 60.793598 18.167999 C 60.793598 17.624001 60.681599 17.143999 60.4576 16.728001 C 60.249599 16.312 59.945599 15.992 59.545601 15.768 C 59.161598 15.528 58.7136 15.408 58.201599 15.408 C 57.689602 15.408 57.233601 15.528 56.833599 15.768 C 56.4496 15.992 56.1376 16.312 55.897598 16.728001 C 55.673599 17.143999 55.5616 17.624001 55.5616 18.167999 C 55.5616 18.695999 55.673599 19.167999 55.897598 19.584 C 56.121601 20 56.433601 20.327999 56.833599 20.568001 C 57.233601 20.808001 57.681599 20.927999 58.177601 20.927999 Z M 60.649601 24 L 60.649601 20.856001 L 61.201599 18.024 L 60.649601 15.192 L 60.649601 12.336 L 64.249603 12.336 L 64.249603 24 Z M 66.835098 24 L 66.835098 12.336 L 70.507103 12.336 L 70.507103 24 Z M 70.507103 17.591999 L 68.9711 16.392 C 69.275101 15.032 69.787102 13.976 70.507103 13.223999 C 71.227097 12.472 72.227097 12.096001 73.507103 12.096001 C 74.067101 12.096001 74.555099 12.184 74.9711 12.360001 C 75.403099 12.52 75.779099 12.776001 76.099098 13.128 L 73.9151 15.888 C 73.755096 15.712 73.555099 15.576 73.315102 15.48 C 73.075104 15.384 72.803101 15.336 72.4991 15.336 C 71.891098 15.336 71.403099 15.528 71.035103 15.912 C 70.683098 16.280001 70.507103 16.84 70.507103 17.591999 Z M 80.715103 17.016001 L 80.715103 14.232 L 84.2911 14.232 C 85.043098 14.232 85.619102 14.04 86.019096 13.656 C 86.435097 13.271999 86.643097 12.751999 86.643097 12.096001 C 86.643097 11.487999 86.4431 10.984001 86.043098 10.584 C 85.643097 10.184 85.067101 9.984001 84.315102 9.984001 L 80.715103 9.984001 L 80.715103 7.056 L 84.747101 7.056 C 85.867104 7.056 86.851097 7.271999 87.699097 7.704 C 88.547096 8.119999 89.211098 8.704 89.691101 9.456001 C 90.171097 10.208 90.411102 11.071999 90.411102 12.048 C 90.411102 13.040001 90.171097 13.911999 89.691101 14.664 C 89.211098 15.4 88.539101 15.976 87.675102 16.392 C 86.811096 16.808001 85.795097 17.016001 84.627098 17.016001 Z M 77.835098 24 L 77.835098 7.056 L 81.603104 7.056 L 81.603104 24 Z M 87.051102 24 L 81.771103 16.704 L 85.227097 15.768 L 91.515099 24 Z M 98.2826 24.264 C 97.0186 24.264 95.890602 24.007999 94.898598 23.496 C 93.9226 22.968 93.154602 22.24 92.594597 21.312 C 92.034599 20.384001 91.754601 19.336 91.754601 18.167999 C 91.754601 17 92.026604 15.96 92.570602 15.048 C 93.1306 14.12 93.882599 13.392 94.826599 12.864 C 95.770599 12.336 96.834602 12.071999 98.0186 12.071999 C 99.170601 12.071999 100.186989 12.32 101.066994 12.816 C 101.946991 13.312 102.634995 14 103.130989 14.88 C 103.64299 15.76 103.898994 16.768 103.898994 17.903999 C 103.898994 18.112 103.882996 18.336 103.85099 18.576 C 103.834991 18.799999 103.794991 19.063999 103.730995 19.368 L 93.674599 19.392 L 93.674599 16.872 L 102.17099 16.848 L 100.58699 17.903999 C 100.570992 17.232 100.466995 16.68 100.274994 16.247999 C 100.082993 15.8 99.794594 15.464 99.410599 15.24 C 99.042603 15 98.586601 14.88 98.042603 14.88 C 97.466599 14.88 96.962601 15.016 96.530602 15.288 C 96.114601 15.544 95.786598 15.912 95.5466 16.392 C 95.322601 16.872 95.210602 17.455999 95.210602 18.143999 C 95.210602 18.832001 95.330597 19.424 95.570602 19.92 C 95.826599 20.4 96.178596 20.775999 96.626602 21.048 C 97.090599 21.304001 97.634598 21.431999 98.258598 21.431999 C 98.834602 21.431999 99.354599 21.336 99.818596 21.143999 C 100.28299 20.936001 100.690994 20.632 101.042992 20.232 L 103.05899 22.247999 C 102.482994 22.92 101.786995 23.424 100.970993 23.76 C 100.154991 24.096001 99.258598 24.264 98.2826 24.264 Z M 113.374992 24 L 113.374992 17.351999 C 113.374992 16.743999 113.182991 16.256001 112.798996 15.888 C 112.430992 15.504 111.958992 15.312 111.382996 15.312 C 110.982994 15.312 110.630989 15.4 110.326996 15.576 C 110.022995 15.736 109.78299 15.976 109.606995 16.296 C 109.430992 16.6 109.342995 16.952 109.342995 17.351999 L 107.926994 16.656 C 107.926994 15.744 108.126991 14.944 108.526993 14.256 C 108.926994 13.568001 109.478989 13.040001 110.182991 12.672001 C 110.902992 12.288 111.710991 12.096001 112.606995 12.096001 C 113.470993 12.096001 114.230995 12.304001 114.886993 12.720001 C 115.55899 13.119999 116.08699 13.656 116.470993 14.328 C 116.854996 15 117.046989 15.736 117.046989 16.535999 L 117.046989 24 Z M 105.67099 24 L 105.67099 12.336 L 109.342995 12.336 L 109.342995 24 Z M 120.92099 24 L 120.92099 7.512001 L 124.592995 7.512001 L 124.592995 24 Z M 118.280991 15.456 L 118.280991 12.336 L 127.232994 12.336 L 127.232994 15.456 Z M 133.488007 24.24 C 132.416 24.24 131.455994 23.976 130.608002 23.448 C 129.776001 22.92 129.112 22.200001 128.615997 21.288 C 128.136002 20.375999 127.895996 19.336 127.895996 18.167999 C 127.895996 17 128.136002 15.96 128.615997 15.048 C 129.112 14.136 129.776001 13.416 130.608002 12.888 C 131.455994 12.360001 132.416 12.096001 133.488007 12.096001 C 134.272003 12.096001 134.975998 12.248001 135.600006 12.552 C 136.240005 12.855999 136.759995 13.279999 137.160004 13.824001 C 137.559998 14.352 137.783997 14.96 137.832001 15.648 L 137.832001 20.688 C 137.783997 21.375999 137.559998 21.992001 137.160004 22.535999 C 136.776001 23.063999 136.264008 23.48 135.623993 23.784 C 134.983994 24.087999 134.272003 24.24 133.488007 24.24 Z M 134.231995 20.927999 C 135.016006 20.927999 135.647995 20.672001 136.128006 20.16 C 136.608002 19.632 136.848007 18.968 136.848007 18.167999 C 136.848007 17.624001 136.735992 17.143999 136.511993 16.728001 C 136.304001 16.312 136 15.992 135.600006 15.768 C 135.216003 15.528 134.768005 15.408 134.255997 15.408 C 133.744003 15.408 133.287994 15.528 132.888 15.768 C 132.503998 15.992 132.192001 16.312 131.951996 16.728001 C 131.727997 17.143999 131.615997 17.624001 131.615997 18.167999 C 131.615997 18.695999 131.727997 19.167999 131.951996 19.584 C 132.175995 20 132.488007 20.327999 132.888 20.568001 C 133.287994 20.808001 133.735992 20.927999 134.231995 20.927999 Z M 136.703995 24 L 136.703995 20.856001 L 137.255997 18.024 L 136.703995 15.192 L 136.703995 12.336 L 140.304001 12.336 L 140.304001 24 Z M 142.889999 24 L 142.889999 6.576 L 146.561996 6.576 L 146.561996 24 Z"/>
    <text id="MyRental" xml:space="preserve" x="38" y="22" font-family="Amazon Ember Display" font-size="23" font-weight="800" fill="#303030">MyRental</text>
    <g id="lexus">
        <path id="path1" fill="#ff9400" stroke="none" d="M 17.50268 26 C 22.965818 26 27.814154 24.147861 30.818073 21.296406 L 28.110773 21.30687 C 25.554474 23.394449 21.81171 24.707689 17.572788 24.707689 C 9.661212 24.707689 3.491584 20.134895 3.491584 14.49477 C 3.491584 7.986128 9.666604 4.281851 17.572788 4.281851 C 18.074341 4.281851 18.478817 4.506828 18.176807 4.930622 C 16.531933 6.850779 11.850781 13.029802 10.998683 14.369202 C 9.316057 17.006142 9.353808 20.255232 13.479477 20.485441 L 30.823465 20.485441 C 31.707926 20.485441 31.934429 20.082573 32.252621 19.664013 C 33.412121 18.141493 34.005356 16.357372 33.999962 14.500003 C 33.994568 9.649912 30.478312 6.018887 25.306395 4.22953 L 24.508226 5.391043 C 28.806471 6.929256 31.6486 10.042313 31.6486 14.500003 C 31.6486 15.274342 31.529951 16.027752 31.308838 16.755007 C 31.114693 17.382851 30.742571 17.916515 30.030689 17.916515 L 16.192173 17.916515 C 14.417865 17.916515 15.10278 16.142859 15.760731 15.279574 C 16.715296 13.621021 21.930359 6.725208 23.186934 5.438129 C 23.505121 4.967247 24.405758 3.988857 23.165361 3.617386 C 21.40184 3.209286 19.492708 3.000004 17.50268 3.000004 C 8.388455 2.994772 1.005396 7.536171 1.000003 14.49477 C 0.99461 21.521381 8.388455 26 17.50268 26 L 17.50268 26 Z"/>
    </g>
    <text id="Text" xml:space="preserve" x="170" y="-247" font-family="Famous Car 1" font-size="9" fill="#c53923">Text</text>
</svg>
