<?xml version="1.0" encoding="UTF-8"?>
<!-- Generated by Pixelmator Pro 3.5.7 -->
<svg width="800" height="800" viewBox="0 0 800 800" xmlns="http://www.w3.org/2000/svg">
    <g id="Group">
        <path id="Path" fill="#000000" stroke="none" d="M 400 682.875854 C 532.418274 682.875854 649.934631 636.601318 722.745117 565.359497 L 657.124207 565.620911 C 595.163391 617.777771 504.444427 650.588257 401.699341 650.588257 C 209.934647 650.588257 60.392159 536.339844 60.392159 395.424835 C 60.392159 232.810486 210.065353 140.261414 401.699341 140.261414 C 413.856232 140.261414 423.660126 145.882324 416.339874 156.470581 C 376.470581 204.444458 263.006531 358.823517 242.352936 392.287598 C 201.568619 458.169922 202.483658 539.346436 302.483643 545.098022 L 722.875793 545.098022 C 744.313782 545.098022 749.803894 535.032654 757.516357 524.575134 C 785.620911 486.53595 800 441.960785 799.869324 395.555573 C 799.738525 274.379089 714.509766 183.660156 589.15033 138.954224 L 569.803894 167.973877 C 673.986877 206.405212 742.875793 284.182983 742.875793 395.555573 C 742.875793 414.901947 739.999939 433.725464 734.640503 451.895447 C 729.934692 467.581726 720.915039 480.915039 703.660095 480.915039 L 368.235321 480.915039 C 325.22876 480.915039 341.830078 436.601318 357.777802 415.032684 C 380.915039 373.594757 507.320282 201.30719 537.777771 169.15033 C 545.490173 157.38562 567.320251 132.941162 537.254883 123.660156 C 494.509796 113.46405 448.235291 108.235291 400 108.235291 C 179.084961 108.104553 0.130719 221.568604 -0 395.424835 C -0.130719 570.980347 179.084961 682.875854 400 682.875854 L 400 682.875854 Z"/>
    </g>
</svg>
